<svg width="1920" height="1920" viewBox="0 0 1920 1920" fill="none" xmlns="http://www.w3.org/2000/svg">
<rect width="1920" height="1920" fill="white"/>
<path d="M1272.44 834.449V1089.25" stroke="#5D5D5D" stroke-width="4"/>
<path d="M1263.62 834.449H1277.37H1281.07L1277.38 852.077H1267.32H1267.3L1263.62 834.449Z" fill="#707070"/>
<path d="M1264.6 835.25L1267.95 851.275H1276.73L1280.09 835.25H1277.36H1264.6ZM1262.63 833.648H1277.36H1282.06L1278.04 852.878H1267.32H1266.65L1262.63 833.648Z" fill="#707070"/>
<path d="M960.693 1114.86C942.809 1144.84 915.582 1168.12 883.192 1181.13C850.803 1194.14 815.038 1196.16 781.388 1186.88C747.738 1177.61 718.061 1157.55 696.912 1129.78C675.763 1102.01 664.309 1068.07 664.309 1033.16C664.309 998.258 675.763 964.317 696.912 936.549C718.061 908.781 747.738 888.72 781.388 879.444C815.038 870.168 850.803 872.191 883.192 885.2C915.582 898.21 942.809 921.489 960.693 951.464C974.701 927.788 994.634 908.167 1018.53 894.534C1042.42 880.9 1069.45 873.724 1096.96 873.711C1184.58 873.711 1255.62 945.099 1255.62 1033.16C1255.62 1121.23 1184.58 1192.62 1096.96 1192.62C1069.45 1192.6 1042.42 1185.43 1018.53 1171.79C994.634 1158.16 974.701 1138.54 960.693 1114.86V1114.86Z" fill="#6377D5"/>
<path d="M960.791 1000.54L960.714 1000.57V1000.5L706.513 896.093L669.088 827.606H1252.49L1215.07 896.093L960.868 1000.5V1000.57L960.791 1000.54Z" fill="#4E64C8"/>
<path d="M960.791 827.627L960.868 827.606V827.654L1215.07 895.297L1252.49 939.671L669.088 939.671L706.51 895.297L960.714 827.654V827.612L960.791 827.627Z" fill="#4E64C8"/>
<path d="M960.201 708.219L1307.4 827.201L960.201 946.183L613 827.201L960.201 708.219Z" fill="#374897"/>
<path d="M829.341 1155.76C885.985 1155.76 931.903 1109.84 931.903 1053.19C931.903 996.551 885.985 950.632 829.341 950.632C772.698 950.632 726.779 996.551 726.779 1053.19C726.779 1109.84 772.698 1155.76 829.341 1155.76Z" fill="white"/>
<path d="M1088.95 1155.76C1145.6 1155.76 1191.51 1109.84 1191.51 1053.19C1191.51 996.551 1145.6 950.632 1088.95 950.632C1032.31 950.632 986.39 996.551 986.39 1053.19C986.39 1109.84 1032.31 1155.76 1088.95 1155.76Z" fill="white"/>
<path d="M829.341 1155.76C815.628 1155.78 802.05 1153.04 789.421 1147.7C777.234 1142.55 766.162 1135.08 756.82 1125.72C747.453 1116.38 739.988 1105.3 734.84 1093.12C729.495 1080.49 726.753 1066.91 726.779 1053.19C726.779 1048.1 727.154 1043.01 727.901 1037.97C731.653 1062.22 743.929 1084.33 762.522 1100.34C781.115 1116.35 804.807 1125.2 829.341 1125.31C853.876 1125.2 877.568 1116.35 896.161 1100.34C914.754 1084.33 927.03 1062.22 930.782 1037.97C931.529 1043.01 931.904 1048.1 931.904 1053.19C931.931 1066.91 929.189 1080.49 923.844 1093.12C918.696 1105.3 911.232 1116.38 901.864 1125.72C892.522 1135.08 881.451 1142.55 869.264 1147.7C856.634 1153.04 843.056 1155.78 829.341 1155.76V1155.76Z" fill="#F3F1F1" fill-opacity="0.56"/>
<path d="M1088.95 1155.76C1075.24 1155.78 1061.66 1153.04 1049.03 1147.7C1036.84 1142.55 1025.77 1135.08 1016.43 1125.72C1007.06 1116.38 999.599 1105.3 994.451 1093.12C989.105 1080.49 986.363 1066.91 986.39 1053.19C986.39 1048.1 986.764 1043.01 987.512 1037.97C991.264 1062.22 1003.54 1084.33 1022.13 1100.34C1040.73 1116.35 1064.42 1125.2 1088.95 1125.31C1113.49 1125.2 1137.18 1116.35 1155.77 1100.34C1174.36 1084.33 1186.64 1062.22 1190.39 1037.97C1191.14 1043.01 1191.51 1048.1 1191.51 1053.19C1191.54 1066.91 1188.8 1080.49 1183.46 1093.12C1178.31 1105.3 1170.84 1116.38 1161.47 1125.72C1152.13 1135.08 1141.06 1142.55 1128.87 1147.7C1116.24 1153.04 1102.67 1155.78 1088.95 1155.76V1155.76Z" fill="#F3F1F1" fill-opacity="0.56"/>
<path d="M1117.8 1162.17C1177.88 1162.17 1226.77 1113.28 1226.77 1053.2L1226.74 1050.81L1226.77 1050.81V944.222H1117.81V943.941L1117.8 944.222C1067.15 944.222 1022.42 980.031 1011.43 1029.37L1008.83 1041.07V1053.2C1008.83 1113.28 1057.71 1162.17 1117.8 1162.17ZM802.099 1162.17C862.186 1162.17 911.07 1113.28 911.07 1053.2V1041.07L908.464 1029.37C897.477 980.037 852.758 944.233 800.561 944.233C800.555 944.233 800.543 944.233 800.537 944.233L800.537 944.222H693.126V1027.55V1051.04L693.147 1051.04L693.126 1051.04V1051.25L693.143 1051.25L693.126 1051.25V1051.48L693.139 1051.48L693.126 1053.2C693.126 1113.28 742.011 1162.17 802.099 1162.17ZM1117.8 1192.61C1040.8 1192.61 978.377 1130.19 978.377 1053.2H941.518C941.518 1130.19 879.098 1192.61 802.099 1192.61C725.098 1192.61 662.678 1130.19 662.678 1053.2C662.678 1052.47 662.683 1051.73 662.695 1051.01C662.688 1051.42 662.683 1051.83 662.681 1052.24H662.678V1053.2V1058H633.832V1027.55H662.678V913.774H802.087C801.417 913.774 800.749 913.778 800.08 913.789C800.75 913.778 801.427 913.774 802.099 913.774C868.641 913.774 924.295 960.388 938.184 1022.75H981.712C995.601 960.388 1051.25 913.774 1117.8 913.774C1118.47 913.774 1119.15 913.778 1119.81 913.789C1119.15 913.778 1118.48 913.774 1117.81 913.774H1257.22V1052.24H1257.22C1257.21 1051.56 1257.2 1050.88 1257.19 1050.19C1257.21 1051.19 1257.22 1052.19 1257.22 1053.2C1257.22 1130.19 1194.8 1192.61 1117.8 1192.61ZM662.7 1050.69C662.7 1050.71 662.699 1050.73 662.699 1050.75C662.699 1050.73 662.7 1050.71 662.7 1050.69ZM662.71 1050.19C662.708 1050.28 662.706 1050.37 662.704 1050.46C662.706 1050.37 662.708 1050.28 662.71 1050.19ZM1286.06 1053.2H1257.22V1022.75H1286.06V1053.2Z" fill="#354AAC"/>
<path d="M992.196 1147.38H992.8L992.601 1147.83L992.8 1148.05H992.503L960.749 1219.86L928.995 1148.05H928.698L928.897 1147.83L928.698 1147.38H929.303L960.749 1112.49L992.196 1147.38Z" fill="#FFDB6D"/>
<path d="M1281.2 1143.74H1268.54H1265.09L1268.67 1089.25H1277.62L1281.2 1143.74Z" fill="#5A5A5A"/>
<path d="M1280.35 1142.94L1276.87 1090.05H1269.42L1265.94 1142.94H1268.54H1280.35ZM1282.06 1144.54H1268.54H1264.23L1267.92 1088.45H1277.75H1278.37L1282.06 1144.54Z" fill="#5A5A5A"/>
<path d="M1272.44 1104.48C1279.52 1104.48 1285.26 1098.74 1285.26 1091.66C1285.26 1084.57 1279.52 1078.84 1272.44 1078.84C1265.36 1078.84 1259.62 1084.57 1259.62 1091.66C1259.62 1098.74 1265.36 1104.48 1272.44 1104.48Z" fill="#707070"/>
<path d="M1272.44 1103.67C1279.08 1103.67 1284.46 1098.29 1284.46 1091.66C1284.46 1085.02 1279.08 1079.64 1272.44 1079.64C1265.8 1079.64 1260.42 1085.02 1260.42 1091.66C1260.42 1098.29 1265.8 1103.67 1272.44 1103.67Z" stroke="#707070"/>
<path d="M1133.98 1081.72C1133.99 1081.39 1134 1081.03 1134 1080.63C1133.99 1069.54 1129.58 1058.91 1121.74 1051.07C1113.89 1043.23 1103.26 1038.82 1092.17 1038.81C1081.09 1038.82 1070.45 1043.23 1062.61 1051.07C1054.77 1058.91 1050.36 1069.54 1050.35 1080.63C1050.35 1080.98 1050.35 1081.35 1050.36 1081.71C1046.26 1074.48 1044.11 1066.31 1044.11 1058C1044.1 1051.57 1045.39 1045.21 1047.89 1039.29C1050.3 1033.57 1053.8 1028.39 1058.19 1024.01C1062.57 1019.62 1067.76 1016.12 1073.47 1013.71C1079.39 1011.2 1085.74 1009.92 1092.16 1009.93C1098.59 1009.91 1104.95 1011.2 1110.87 1013.7C1116.58 1016.12 1121.77 1019.61 1126.15 1024C1130.54 1028.38 1134.04 1033.57 1136.46 1039.28C1138.96 1045.2 1140.25 1051.57 1140.23 1057.99C1140.24 1066.31 1138.08 1074.48 1133.98 1081.72V1081.72Z" fill="#454545"/>
<path d="M866.36 1083.32C866.371 1082.99 866.378 1082.63 866.378 1082.23C866.365 1071.15 861.954 1060.51 854.113 1052.67C846.272 1044.83 835.64 1040.42 824.551 1040.41C813.462 1040.42 802.831 1044.83 794.99 1052.67C787.149 1060.51 782.738 1071.15 782.725 1082.23C782.725 1082.59 782.725 1082.95 782.74 1083.32C778.639 1076.08 776.485 1067.91 776.49 1059.6C776.477 1053.17 777.762 1046.81 780.267 1040.89C782.68 1035.18 786.179 1029.99 790.57 1025.61C794.949 1021.22 800.139 1017.72 805.852 1015.31C811.762 1012.81 818.116 1011.52 824.534 1011.53C830.962 1011.52 837.328 1012.8 843.248 1015.31C848.961 1017.72 854.151 1021.22 858.53 1025.61C862.921 1029.99 866.419 1035.17 868.833 1040.89C871.338 1046.8 872.622 1053.17 872.61 1059.6C872.614 1067.91 870.461 1076.09 866.36 1083.32V1083.32Z" fill="#454545"/>
</svg>
