<svg width="1150" height="168" viewBox="0 0 1150 168" fill="none" xmlns="http://www.w3.org/2000/svg">
<path d="M68.5814 132.348C68.5814 128.568 66.6912 125.608 62.9108 123.468C59.2018 121.257 53.2103 119.295 44.9363 117.583C17.4039 111.806 3.6377 96.4863 3.6377 78.8684C3.6377 68.5973 7.88169 60.038 16.3697 53.1905C24.929 46.2718 36.0917 42.8124 49.8579 42.8124C64.5514 42.8124 76.2847 46.2718 85.058 53.1905C93.9026 60.1093 98.3249 69.0966 98.3249 80.1523H67.4045C67.4045 75.73 65.9779 72.0923 63.1248 69.2392C60.2717 66.3148 55.8137 64.8526 49.7509 64.8526C44.544 64.8526 40.514 66.0295 37.6609 68.3833C34.8078 70.7371 33.3813 73.7329 33.3813 77.3706C33.3813 80.7943 34.9861 83.576 38.1959 85.7159C41.4769 87.7844 46.9691 89.6032 54.6725 91.1724C62.3759 92.6703 68.8667 94.3822 74.1449 96.308C90.4789 102.3 98.6459 116.299 98.6459 131.064C98.6459 141.621 94.1166 150.18 85.058 156.742C75.9994 163.233 64.3017 166.478 49.9649 166.478C40.2644 166.478 31.6337 164.766 24.073 161.343C16.5836 157.848 10.6991 153.104 6.41947 147.113C2.13982 141.05 0 134.524 0 127.534H29.3156C29.6009 133.026 31.6337 137.234 35.4141 140.158C39.1944 143.083 44.2587 144.545 50.6068 144.545C56.527 144.545 60.985 143.44 63.9807 141.228C67.0478 138.946 68.5814 135.986 68.5814 132.348Z" fill="white"/>
<path d="M116.03 105.386C116.03 93.9026 118.241 83.6671 122.663 74.6799C127.086 65.6926 133.434 58.7382 141.708 53.8166C150.053 48.895 159.718 46.4342 170.702 46.4342C186.323 46.4342 199.055 51.2131 208.898 60.771C218.813 70.3289 224.341 83.3105 225.482 99.7158L225.696 107.633C225.696 125.394 220.739 139.659 210.824 150.43C200.91 161.129 187.607 166.478 170.916 166.478C154.226 166.478 140.887 161.129 130.902 150.43C120.987 139.731 116.03 125.18 116.03 106.777V105.386ZM146.95 107.633C146.95 118.618 149.019 130.656 153.156 136.505C157.293 142.282 163.213 141.549 170.916 141.549C178.406 141.549 184.255 142.318 188.463 136.612C192.671 130.834 194.775 118.011 194.775 105.386C194.775 94.6159 192.671 82.6488 188.463 76.7286C184.255 70.8084 178.334 71.4701 170.702 71.4701C163.142 71.4701 157.293 70.8084 153.156 76.7286C149.019 82.5775 146.95 95.2935 146.95 107.633Z" fill="white"/>
<path d="M351.248 107.526C351.248 126.071 347.289 140.551 339.372 150.965C331.454 161.307 320.399 166.478 306.205 166.478C293.651 166.478 283.629 161.664 276.14 152.034L274.749 164.338H246.931V0L262.926 7.69629L277.852 14.738V29.4761V58.9522C284.985 50.6068 294.364 46.4342 305.991 46.4342C320.113 46.4342 331.169 51.6411 339.158 62.0549C347.218 72.3974 351.248 86.9838 351.248 105.814V107.526ZM320.327 105.279C320.327 93.5816 318.473 85.058 314.764 79.7084C311.055 74.2876 305.527 71.5771 298.18 71.5771C288.337 71.5771 281.561 75.6071 277.852 83.6671V129.352C281.632 137.484 288.48 141.549 298.394 141.549C308.38 141.549 314.942 136.628 318.081 126.785C319.578 122.077 320.327 114.909 320.327 105.279Z" fill="white"/>
<path d="M439.674 164.338C438.247 161.557 437.213 158.097 436.571 153.96C429.082 162.306 419.346 166.478 407.363 166.478C396.022 166.478 386.606 163.197 379.117 156.635C371.699 150.073 367.99 141.799 367.99 131.813C367.99 119.545 372.519 110.13 381.578 103.567C390.708 97.0054 403.868 93.6886 421.057 93.6173H435.287V86.9838C435.287 81.6343 433.896 77.3546 431.115 74.1449C428.404 70.9352 424.089 69.3303 418.169 69.3303C412.962 69.3303 408.86 70.5785 405.865 73.075C402.94 75.5715 401.478 78.9952 401.478 83.3461H370.558C370.558 76.6414 372.626 70.4359 376.763 64.7297C380.9 59.0235 386.749 54.5655 394.31 51.3558C401.87 48.0747 410.358 46.4342 419.774 46.4342C434.039 46.4342 445.344 50.0362 453.69 57.2403C462.106 64.373 466.315 74.4302 466.315 87.4118V137.591C466.386 148.575 467.92 156.885 470.915 162.52V164.338H439.674ZM414.103 142.833C418.668 142.833 422.876 141.835 426.728 139.838C430.58 137.769 433.433 135.023 435.287 131.599V111.699H423.732C408.254 111.699 400.016 117.048 399.017 127.747L398.91 129.566C398.91 133.418 400.266 136.592 402.976 139.089C405.686 141.585 409.395 142.833 414.103 142.833Z" fill="white"/>
<path d="M501.964 26.7107L518.412 34.3442V48.574H538.205V71.2561H518.412V129.031C518.412 133.311 519.232 136.378 520.872 138.233C522.513 140.087 525.651 141.014 530.288 141.014C533.711 141.014 536.743 140.765 539.382 140.265V163.697C533.319 165.551 527.078 166.478 520.658 166.478C498.975 166.478 487.919 155.53 487.491 133.632V71.2561V48.574V20.1143L501.964 26.7107Z" fill="white"/>
<path d="M995.085 122.611L1010.28 48.8942H1040.13L1010.6 164.659H984.707L962.774 91.7976L940.841 164.659H915.056L885.526 48.8942H915.377L930.463 122.504L951.647 48.8942H974.008L995.085 122.611Z" fill="white"/>
<path d="M754.727 164.339H723.7V59.4394H754.727V164.339ZM721.881 33.1037C721.881 28.4674 723.414 24.6514 726.481 21.6556C729.62 18.6599 733.864 17.162 739.213 17.162C744.491 17.162 748.7 18.6599 751.838 21.6556C754.977 24.6514 756.546 28.4674 756.546 33.1037C756.546 37.8113 754.941 41.663 751.731 44.6587C748.593 47.6545 744.42 49.1524 739.213 49.1524C734.006 49.1524 729.798 47.6545 726.588 44.6587C723.45 41.663 721.881 37.8113 721.881 33.1037Z" fill="white"/>
<path d="M1118.76 164.339C1117.33 161.557 1116.3 158.097 1115.66 153.96C1108.17 162.306 1098.43 166.478 1086.45 166.478C1075.11 166.478 1065.69 163.197 1058.2 156.635C1050.78 150.073 1047.07 141.799 1047.07 131.813C1047.07 119.545 1051.6 110.13 1060.66 103.568C1069.79 97.0054 1082.95 93.6887 1100.14 93.6173H1114.37V86.9839C1114.37 81.6343 1112.98 77.3547 1110.2 74.1449C1107.49 70.9352 1103.17 69.3303 1097.25 69.3303C1092.05 69.3303 1087.95 70.5786 1084.95 73.075C1082.02 75.5715 1080.56 78.9952 1080.56 83.3462H1049.64C1049.64 76.6414 1051.71 70.4359 1055.85 64.7297C1059.98 59.0235 1065.83 54.5655 1073.39 51.3558C1080.96 48.0747 1089.44 46.4342 1098.86 46.4342C1113.12 46.4342 1124.43 50.0362 1132.77 57.2403C1141.19 64.3731 1145.4 74.4302 1145.4 87.4118V137.591C1145.47 148.575 1147 156.885 1150 162.52V164.339H1118.76ZM1093.19 142.833C1097.75 142.833 1101.96 141.835 1105.81 139.838C1109.66 137.769 1112.52 135.023 1114.37 131.599V111.699H1102.82C1087.34 111.699 1079.1 117.048 1078.1 127.748L1077.99 129.566C1077.99 133.418 1079.35 136.592 1082.06 139.089C1084.77 141.585 1088.48 142.833 1093.19 142.833Z" fill="white"/>
<path d="M669.798 132.997C669.798 129.217 667.907 126.257 664.127 124.117C660.418 121.906 654.427 119.944 646.153 118.232C618.62 112.455 604.854 97.1355 604.854 79.5176C604.854 69.2464 609.098 60.6871 617.586 53.8397C626.145 46.9209 637.308 43.4615 651.074 43.4615C665.768 43.4615 677.501 46.9209 686.274 53.8397C695.119 60.7585 699.541 69.7457 699.541 80.8015H668.621C668.621 76.3792 667.194 72.7415 664.341 69.8884C661.488 66.9639 657.03 65.5017 650.967 65.5017C645.76 65.5017 641.73 66.6786 638.877 69.0324C636.024 71.3863 634.598 74.382 634.598 78.0197C634.598 81.4434 636.202 84.2252 639.412 86.365C642.693 88.4335 648.185 90.2524 655.889 91.8216C663.592 93.3194 670.083 95.0313 675.361 96.9572C691.695 102.949 699.862 116.949 699.862 131.713C699.862 142.27 695.333 150.829 686.274 157.391C677.216 163.882 665.518 167.127 651.181 167.127C641.481 167.127 632.85 165.416 625.289 161.992C617.8 158.497 611.915 153.754 607.636 147.762C603.356 141.699 601.216 135.173 601.216 128.183H630.532C630.817 133.675 632.85 137.883 636.63 140.808C640.411 143.732 645.475 145.194 651.823 145.194C657.743 145.194 662.201 144.089 665.197 141.878C668.264 139.595 669.798 136.635 669.798 132.997Z" fill="white"/>
<path d="M843.643 132.997C843.643 129.217 841.753 126.257 837.973 124.117C834.264 121.906 828.272 119.944 819.998 118.232C792.466 112.455 778.7 97.1355 778.7 79.5176C778.7 69.2464 782.944 60.6871 791.432 53.8397C799.991 46.9209 811.154 43.4615 824.92 43.4615C839.613 43.4615 851.347 46.9209 860.12 53.8397C868.965 60.7585 873.387 69.7457 873.387 80.8015H842.466C842.466 76.3792 841.04 72.7415 838.187 69.8884C835.334 66.9639 830.876 65.5017 824.813 65.5017C819.606 65.5017 815.576 66.6786 812.723 69.0324C809.87 71.3863 808.443 74.382 808.443 78.0197C808.443 81.4434 810.048 84.2252 813.258 86.365C816.539 88.4335 822.031 90.2524 829.734 91.8216C837.438 93.3194 843.929 95.0313 849.207 96.9572C865.541 102.949 873.708 116.949 873.708 131.713C873.708 142.27 869.179 150.829 860.12 157.391C851.061 163.882 839.364 167.127 825.027 167.127C815.326 167.127 806.696 165.416 799.135 161.992C791.646 158.497 785.761 153.754 781.481 147.762C777.202 141.699 775.062 135.173 775.062 128.183H804.378C804.663 133.675 806.696 137.883 810.476 140.808C814.256 143.732 819.321 145.194 825.669 145.194C831.589 145.194 836.047 144.089 839.043 141.878C842.11 139.595 843.643 136.635 843.643 132.997Z" fill="white"/>
</svg>
