<svg width="861" height="667" viewBox="0 0 861 667" fill="none" xmlns="http://www.w3.org/2000/svg">
<g clip-path="url(#clip0)">
<path d="M754.615 299.955L736.002 361.944" stroke="#5D5D5D" stroke-width="4"/>
<path d="M752.468 299.311L755.813 300.315L756.715 300.586L754.53 304.605L752.082 303.87L752.077 303.868L752.468 299.311Z" fill="#707070"/>
<path d="M752.649 299.578L752.294 303.721L754.43 304.362L756.416 300.709L755.754 300.51L752.649 299.578ZM752.287 299.044L755.872 300.12L757.013 300.463L754.63 304.847L752.023 304.065L751.86 304.016L752.287 299.044Z" fill="#707070"/>
<path d="M706.224 437.301C710.904 435.088 713.155 429.334 711.252 424.45L709.361 419.597L716.178 430.825C718.864 435.25 724.511 436.384 728.789 433.356C733.067 430.328 734.36 424.287 731.672 419.861L728.793 415.119L736.181 422.612C739.761 426.243 745.553 425.987 749.117 422.042C752.682 418.096 752.669 411.954 749.088 408.323L710.618 369.31C707.038 365.679 701.246 365.934 697.682 369.88C695.868 371.897 694.914 374.544 695.025 377.255C694.955 377.301 694.885 377.349 694.817 377.398C693.259 378.507 692.048 380.036 691.325 381.806C689.168 381.074 686.809 381.221 684.759 382.215C680.079 384.428 677.827 390.181 679.73 395.065L694.303 432.464C694.776 433.73 695.534 434.87 696.517 435.797C697.501 436.723 698.684 437.412 699.975 437.809C702.049 438.424 704.277 438.242 706.224 437.301V437.301Z" fill="#374897"/>
<path d="M567.114 395.53C564.428 391.105 565.718 385.063 569.996 382.036L574.248 379.027L562.374 384.642C557.694 386.855 552.357 384.69 550.455 379.806C548.552 374.922 550.801 369.168 555.483 366.956L560.498 364.584L550.204 366.767C545.216 367.825 540.523 364.421 539.722 359.164C538.92 353.908 542.315 348.789 547.304 347.731L600.901 336.364C605.889 335.306 610.582 338.71 611.384 343.966C611.786 346.649 611.124 349.384 609.538 351.585C609.571 351.662 609.603 351.741 609.633 351.819C610.322 353.603 610.49 355.546 610.118 357.422C612.322 357.999 614.21 359.42 615.374 361.378C618.06 365.804 616.77 371.845 612.491 374.873L579.726 398.058C578.634 398.853 577.374 399.387 576.043 399.619C574.712 399.85 573.346 399.773 572.05 399.394C569.981 398.766 568.221 397.388 567.114 395.53V395.53Z" fill="#374897"/>
<path d="M638.613 410.265C673.171 420.642 710.149 399.207 721.205 362.388C732.261 325.569 713.209 287.309 678.651 276.932C644.093 266.555 607.115 287.99 596.059 324.809C585.003 361.628 604.055 399.888 638.613 410.265Z" fill="#BD3A66"/>
<path d="M625.148 454.824C622.504 454.263 614.588 452.33 597.374 446.369C575.322 438.734 575.602 412.467 575.602 412.467L598.194 286.561L740.338 329.244L689.832 446.768C689.832 446.768 675.595 468.844 652.985 463.07C645.448 461.145 639.73 459.54 635.457 458.257C629.725 456.534 626.591 455.39 625.148 454.824Z" fill="#4054B2"/>
<path d="M658.289 345.4C651.748 351.386 643.424 355.06 634.594 355.859C625.764 356.658 616.915 354.537 609.406 349.822C601.898 345.108 596.144 338.059 593.027 329.759C589.91 321.458 589.603 312.365 592.153 303.873C594.703 295.381 599.969 287.961 607.143 282.751C614.316 277.54 623.001 274.828 631.865 275.029C640.729 275.231 649.282 278.336 656.212 283.867C663.141 289.398 668.064 297.05 670.225 305.649C675.363 300.912 681.645 297.595 688.454 296.024C695.263 294.453 702.364 294.682 709.057 296.688C730.373 303.089 742.439 325.645 736.005 347.069C729.572 368.493 707.077 380.672 685.761 374.271C679.069 372.258 673.017 368.537 668.2 363.475C663.383 358.413 659.967 352.183 658.289 345.4V345.4Z" fill="#6377D5"/>
<path d="M666.664 317.594L666.643 317.596L666.648 317.581L612.434 273.61L608.332 254.214L750.262 296.833L736.155 310.761L666.685 317.592L666.681 317.608L666.664 317.594Z" fill="#4E64C8"/>
<path d="M679.296 275.529L679.316 275.53L679.312 275.541L736.212 310.567L742.076 324.097L600.145 281.478L612.491 273.416L679.275 275.53L679.278 275.52L679.296 275.529Z" fill="#4E64C8"/>
<path d="M687.875 246.437L763.65 300.746L670.491 304.328L594.717 250.019L687.875 246.437Z" fill="#374897"/>
<path d="M623.346 345.753C637.126 349.891 651.652 342.075 655.79 328.295C659.928 314.514 652.111 299.989 638.331 295.851C624.551 291.713 610.025 299.53 605.887 313.31C601.749 327.09 609.566 341.616 623.346 345.753Z" fill="white"/>
<path d="M686.504 364.719C700.284 368.856 714.81 361.04 718.948 347.26C723.085 333.48 715.269 318.954 701.489 314.816C687.709 310.678 673.183 318.495 669.045 332.275C664.907 346.055 672.724 360.581 686.504 364.719Z" fill="white"/>
<path d="M623.346 345.753C620.008 344.758 616.905 343.099 614.223 340.877C611.634 338.734 609.486 336.109 607.898 333.148C606.301 330.191 605.294 326.952 604.932 323.611C604.554 320.148 604.879 316.644 605.887 313.31C606.259 312.07 606.722 310.86 607.272 309.688C606.414 315.861 607.785 322.137 611.139 327.39C614.493 332.643 619.61 336.527 625.57 338.346C631.547 340.112 637.958 339.689 643.65 337.153C649.343 334.616 653.945 330.133 656.629 324.509C656.443 325.79 656.162 327.055 655.79 328.295C654.794 331.633 653.136 334.736 650.913 337.418C648.77 340.007 646.145 342.155 643.184 343.743C640.227 345.34 636.988 346.347 633.647 346.709C630.184 347.087 626.681 346.762 623.346 345.753V345.753Z" fill="#F3F1F1" fill-opacity="0.56"/>
<path d="M686.504 364.719C683.166 363.723 680.063 362.064 677.381 359.842C674.792 357.699 672.644 355.074 671.056 352.113C669.459 349.156 668.452 345.917 668.09 342.576C667.712 339.113 668.037 335.609 669.045 332.275C669.417 331.035 669.88 329.825 670.43 328.653C669.572 334.826 670.943 341.102 674.297 346.355C677.65 351.608 682.767 355.492 688.728 357.311C694.705 359.077 701.115 358.654 706.808 356.118C712.501 353.582 717.103 349.099 719.787 343.474C719.6 344.755 719.32 346.02 718.948 347.26C717.952 350.598 716.293 353.701 714.07 356.383C711.928 358.972 709.303 361.12 706.342 362.708C703.385 364.305 700.146 365.312 696.805 365.674C693.342 366.052 689.838 365.727 686.504 364.719V364.719Z" fill="#F3F1F1" fill-opacity="0.56"/>
<path d="M693.053 368.385C707.671 372.775 723.135 364.453 727.524 349.835L727.693 349.253L727.699 349.255L735.485 323.325L708.977 315.365L708.998 315.296L708.974 315.364C696.654 311.664 683.155 317.108 676.878 328.307L675.389 330.964L674.503 333.914C670.114 348.532 678.435 363.996 693.053 368.385ZM616.25 345.323C630.868 349.712 646.332 341.391 650.721 326.773L651.607 323.823L651.828 320.785C652.759 307.982 644.495 296.005 631.797 292.192C631.795 292.191 631.792 292.19 631.791 292.19L631.792 292.187L605.661 284.341L599.573 304.614L597.857 310.328L597.862 310.329L597.857 310.328L597.842 310.378L597.847 310.379L597.842 310.378L597.825 310.434L597.829 310.435L597.7 310.852C593.311 325.469 601.632 340.933 616.25 345.323ZM690.829 375.792C672.097 370.168 661.471 350.422 667.096 331.69L658.129 328.997C652.504 347.729 632.758 358.355 614.026 352.73C595.293 347.105 584.668 327.359 590.293 308.627C590.346 308.45 590.401 308.272 590.457 308.096C590.425 308.196 590.394 308.295 590.363 308.396L590.362 308.395L590.293 308.627L589.942 309.797L582.924 307.689L585.148 300.282L592.166 302.389L600.478 274.709L634.393 284.893C634.23 284.844 634.067 284.796 633.904 284.75C634.068 284.797 634.232 284.845 634.396 284.894C650.584 289.755 660.718 305.161 659.542 321.346L670.131 324.526C678.066 310.37 695.01 303.095 711.199 307.956C711.362 308.006 711.526 308.056 711.688 308.107C711.527 308.056 711.365 308.006 711.201 307.957L745.117 318.141L735.001 351.828L735.001 351.827C735.05 351.66 735.097 351.494 735.143 351.327C735.075 351.571 735.005 351.816 734.932 352.06C729.307 370.792 709.561 381.417 690.829 375.792ZM590.481 308.02C590.479 308.025 590.478 308.03 590.476 308.035C590.478 308.03 590.479 308.025 590.481 308.02ZM590.52 307.899C590.513 307.921 590.506 307.943 590.499 307.965C590.506 307.943 590.513 307.921 590.52 307.899ZM741.949 354.167L734.932 352.06L737.156 344.652L744.174 346.759L741.949 354.167Z" fill="#354AAC"/>
<path d="M663.577 355.613L663.724 355.657L663.643 355.752L663.675 355.821L663.603 355.799L650.632 370.948L648.152 351.16L648.08 351.138L648.145 351.099L648.129 350.975L648.276 351.019L658.476 344.827L663.577 355.613Z" fill="#FFDB6D"/>
<path d="M603.125 467.654C602.612 466.895 602.26 466.039 602.091 465.139C601.87 464.04 601.798 462.917 601.877 461.8C601.935 460.873 602.069 459.953 602.278 459.048L600.842 458.617C600.518 459.487 600.123 460.329 599.661 461.134C599.112 462.111 598.433 463.008 597.643 463.803C597.006 464.461 596.241 464.982 595.394 465.332C594.693 465.643 593.903 465.692 593.168 465.472C592.434 465.251 591.802 464.775 591.387 464.129C590.874 463.37 590.523 462.514 590.353 461.614C590.132 460.516 590.06 459.393 590.139 458.275C590.197 457.348 590.331 456.428 590.54 455.524L588.653 454.957C588.329 455.827 587.934 456.669 587.472 457.474C586.922 458.45 586.243 459.348 585.454 460.143C584.817 460.801 584.051 461.322 583.205 461.672C582.5 461.969 581.715 462.018 580.979 461.811C580.251 461.578 579.623 461.105 579.198 460.469C578.685 459.71 578.333 458.854 578.164 457.954C577.943 456.855 577.87 455.732 577.949 454.614C578.007 453.688 578.141 452.767 578.35 451.863L578.312 451.851C578.362 451.69 578.415 451.53 578.47 451.37C578.519 451.181 578.572 450.991 578.627 450.801L578.672 450.814C579.4 448.891 580.443 447.103 581.758 445.521C583.243 443.73 585.057 442.237 587.101 441.124C589.125 440.013 591.345 439.306 593.639 439.043C596.001 438.775 598.392 438.989 600.669 439.673C602.945 440.356 605.06 441.495 606.883 443.02C608.652 444.503 610.116 446.316 611.194 448.358C612.286 450.414 612.977 452.66 613.229 454.974C613.456 457.018 613.341 459.085 612.89 461.091L612.934 461.105C612.876 461.293 612.815 461.48 612.751 461.665C612.709 461.829 612.665 461.992 612.619 462.154L612.58 462.143C612.256 463.013 611.861 463.855 611.399 464.66C610.849 465.636 610.17 466.534 609.381 467.329C608.744 467.986 607.978 468.507 607.132 468.857C606.431 469.168 605.641 469.217 604.906 468.996C604.172 468.776 603.54 468.299 603.125 467.654V467.654Z" fill="#FFDB6D"/>
<path d="M657.316 483.926C656.803 483.167 656.451 482.312 656.282 481.411C656.061 480.313 655.989 479.19 656.068 478.072C656.126 477.146 656.26 476.225 656.469 475.321L655.033 474.89C654.709 475.76 654.314 476.602 653.852 477.407C653.302 478.383 652.623 479.281 651.834 480.076C651.197 480.734 650.431 481.254 649.585 481.605C648.884 481.915 648.094 481.965 647.359 481.744C646.625 481.523 645.993 481.047 645.578 480.402C645.065 479.643 644.713 478.787 644.544 477.887C644.323 476.788 644.251 475.665 644.33 474.548C644.388 473.621 644.522 472.701 644.731 471.796L642.844 471.23C642.52 472.1 642.125 472.942 641.663 473.747C641.113 474.723 640.434 475.621 639.645 476.415C639.008 477.074 638.242 477.594 637.396 477.945C636.691 478.241 635.906 478.29 635.17 478.084C634.442 477.85 633.814 477.377 633.389 476.741C632.876 475.983 632.524 475.127 632.355 474.226C632.134 473.128 632.061 472.005 632.14 470.887C632.198 469.96 632.332 469.04 632.541 468.135L632.502 468.124C632.553 467.963 632.606 467.802 632.661 467.643C632.71 467.453 632.763 467.263 632.818 467.073L632.863 467.087C633.591 465.164 634.634 463.375 635.949 461.794C637.434 460.002 639.248 458.51 641.291 457.396C643.316 456.286 645.536 455.579 647.83 455.315C650.192 455.047 652.583 455.262 654.86 455.945C657.136 456.629 659.25 457.767 661.074 459.292C662.843 460.776 664.307 462.589 665.385 464.631C666.477 466.687 667.168 468.932 667.42 471.246C667.646 473.29 667.532 475.357 667.08 477.364L667.125 477.377C667.067 477.566 667.006 477.753 666.942 477.938C666.9 478.101 666.856 478.264 666.81 478.427L666.771 478.415C666.447 479.285 666.052 480.127 665.59 480.932C665.04 481.909 664.361 482.806 663.572 483.601C662.934 484.259 662.169 484.779 661.323 485.13C660.622 485.44 659.832 485.489 659.097 485.269C658.362 485.048 657.731 484.572 657.316 483.926V483.926Z" fill="#FFDB6D"/>
<path opacity="0.17" d="M624.044 387.434C623.431 387.253 622.876 386.914 622.436 386.45C621.996 385.986 621.686 385.414 621.538 384.792L619.24 375.355C619.113 374.852 619.096 374.327 619.19 373.817C619.285 373.306 619.489 372.822 619.788 372.398C620.085 371.969 620.471 371.608 620.919 371.34C621.368 371.072 621.868 370.902 622.387 370.842L623.268 378.703C623.348 379.416 623.636 380.091 624.096 380.642C624.556 381.193 625.168 381.597 625.855 381.804C626.543 382.01 627.276 382.01 627.964 381.803C628.651 381.597 629.263 381.192 629.723 380.641L634.727 374.641C635.093 374.988 635.384 375.407 635.582 375.871C635.78 376.335 635.881 376.835 635.879 377.34C635.878 377.84 635.774 378.335 635.572 378.792C635.37 379.25 635.075 379.661 634.706 379.999L627.591 386.61C627.125 387.048 626.551 387.354 625.928 387.499C625.305 387.644 624.655 387.621 624.044 387.434V387.434Z" fill="white"/>
<path opacity="0.17" d="M643.967 393.416C643.353 393.236 642.799 392.896 642.359 392.433C641.919 391.969 641.609 391.397 641.461 390.775L639.162 381.337C639.035 380.834 639.019 380.309 639.113 379.799C639.208 379.289 639.411 378.805 639.71 378.38C640.008 377.951 640.394 377.591 640.842 377.322C641.29 377.054 641.791 376.884 642.309 376.825L643.191 384.685C643.271 385.399 643.559 386.073 644.019 386.624C644.479 387.176 645.091 387.58 645.778 387.786C646.466 387.993 647.199 387.992 647.887 387.786C648.574 387.579 649.186 387.175 649.646 386.623L654.65 380.623C655.016 380.971 655.307 381.389 655.505 381.853C655.703 382.318 655.804 382.817 655.801 383.322C655.801 383.822 655.696 384.317 655.495 384.775C655.293 385.233 654.998 385.644 654.629 385.982L647.514 392.593C647.047 393.03 646.474 393.337 645.851 393.481C645.228 393.626 644.578 393.604 643.967 393.416V393.416Z" fill="white"/>
<path opacity="0.17" d="M663.89 399.399C663.276 399.218 662.721 398.879 662.281 398.415C661.841 397.951 661.532 397.379 661.384 396.757L659.085 387.32C658.958 386.816 658.941 386.292 659.036 385.781C659.13 385.271 659.334 384.787 659.633 384.363C659.931 383.934 660.317 383.573 660.765 383.305C661.213 383.037 661.713 382.867 662.232 382.807L663.114 390.668C663.194 391.381 663.482 392.055 663.942 392.607C664.401 393.158 665.013 393.562 665.701 393.769C666.389 393.975 667.122 393.975 667.809 393.768C668.497 393.561 669.109 393.157 669.568 392.606L674.573 386.606C674.939 386.953 675.23 387.372 675.428 387.836C675.626 388.3 675.727 388.8 675.724 389.304C675.724 389.805 675.619 390.299 675.417 390.757C675.216 391.215 674.921 391.626 674.552 391.964L667.436 398.575C666.97 399.013 666.397 399.319 665.774 399.464C665.151 399.609 664.501 399.586 663.89 399.399V399.399Z" fill="white"/>
<path opacity="0.17" d="M683.813 405.381C683.199 405.201 682.645 404.861 682.205 404.398C681.765 403.934 681.455 403.362 681.307 402.74L679.008 393.302C678.881 392.799 678.864 392.274 678.959 391.764C679.054 391.254 679.257 390.77 679.556 390.345C679.854 389.916 680.24 389.556 680.688 389.287C681.136 389.019 681.636 388.849 682.155 388.79L683.037 396.65C683.117 397.364 683.405 398.038 683.865 398.589C684.325 399.141 684.936 399.545 685.624 399.751C686.312 399.958 687.045 399.957 687.733 399.751C688.42 399.544 689.032 399.14 689.492 398.588L694.496 392.588C694.862 392.936 695.153 393.354 695.351 393.818C695.549 394.283 695.65 394.782 695.647 395.287C695.647 395.787 695.542 396.282 695.341 396.74C695.139 397.198 694.844 397.609 694.475 397.947L687.36 404.558C686.893 404.995 686.32 405.302 685.697 405.446C685.074 405.591 684.424 405.569 683.813 405.381V405.381Z" fill="white"/>
<path opacity="0.17" d="M604.121 381.451C603.508 381.271 602.953 380.931 602.513 380.468C602.073 380.004 601.763 379.432 601.615 378.81L599.317 369.372C599.189 368.869 599.173 368.344 599.267 367.834C599.362 367.324 599.565 366.84 599.864 366.415C600.162 365.986 600.548 365.626 600.996 365.357C601.444 365.089 601.945 364.919 602.464 364.86L603.345 372.72C603.425 373.434 603.713 374.108 604.173 374.659C604.633 375.211 605.245 375.615 605.932 375.821C606.62 376.028 607.353 376.027 608.041 375.821C608.728 375.614 609.34 375.21 609.8 374.658L614.804 368.658C615.17 369.006 615.461 369.424 615.659 369.888C615.857 370.353 615.958 370.852 615.955 371.357C615.955 371.857 615.85 372.352 615.649 372.81C615.447 373.268 615.152 373.679 614.783 374.017L607.668 380.628C607.201 381.065 606.628 381.372 606.005 381.517C605.382 381.661 604.732 381.639 604.121 381.451V381.451Z" fill="white"/>
<path opacity="0.17" d="M607.876 404.499C607.262 404.319 606.708 403.979 606.268 403.515C605.828 403.051 605.518 402.479 605.37 401.857L603.071 392.42C602.944 391.917 602.927 391.392 603.022 390.882C603.117 390.371 603.32 389.887 603.619 389.463C603.917 389.034 604.303 388.673 604.751 388.405C605.199 388.137 605.699 387.967 606.218 387.907L607.1 395.768C607.18 396.481 607.468 397.156 607.928 397.707C608.388 398.258 608.999 398.662 609.687 398.869C610.375 399.075 611.108 399.075 611.795 398.868C612.483 398.662 613.095 398.258 613.554 397.706L618.559 391.706C618.925 392.053 619.216 392.472 619.414 392.936C619.612 393.4 619.713 393.9 619.71 394.405C619.71 394.905 619.605 395.4 619.403 395.858C619.202 396.315 618.907 396.726 618.538 397.064L611.422 403.675C610.956 404.113 610.383 404.42 609.76 404.564C609.137 404.709 608.487 404.686 607.876 404.499V404.499Z" fill="white"/>
<path opacity="0.17" d="M627.799 410.482C627.186 410.301 626.631 409.962 626.191 409.498C625.751 409.034 625.441 408.462 625.293 407.84L622.994 398.403C622.867 397.899 622.851 397.375 622.945 396.864C623.04 396.354 623.243 395.87 623.542 395.446C623.84 395.017 624.226 394.656 624.674 394.388C625.122 394.119 625.623 393.95 626.141 393.89L627.023 401.75C627.103 402.464 627.391 403.138 627.851 403.69C628.311 404.241 628.923 404.645 629.61 404.851C630.298 405.058 631.031 405.058 631.719 404.851C632.406 404.644 633.018 404.24 633.478 403.689L638.482 397.689C638.848 398.036 639.139 398.455 639.337 398.919C639.535 399.383 639.636 399.883 639.633 400.387C639.633 400.888 639.528 401.382 639.327 401.84C639.125 402.298 638.83 402.709 638.461 403.047L631.346 409.658C630.879 410.095 630.306 410.402 629.683 410.547C629.06 410.691 628.41 410.669 627.799 410.482V410.482Z" fill="white"/>
<path opacity="0.17" d="M647.722 416.464C647.108 416.283 646.554 415.944 646.113 415.48C645.673 415.016 645.364 414.444 645.216 413.822L642.917 404.385C642.79 403.882 642.773 403.357 642.868 402.847C642.962 402.336 643.166 401.852 643.465 401.428C643.763 400.999 644.149 400.638 644.597 400.37C645.045 400.102 645.545 399.932 646.064 399.872L646.946 407.733C647.026 408.446 647.314 409.121 647.774 409.672C648.233 410.223 648.845 410.627 649.533 410.834C650.221 411.04 650.954 411.04 651.641 410.833C652.329 410.627 652.941 410.223 653.4 409.671L658.405 403.671C658.771 404.018 659.062 404.437 659.26 404.901C659.458 405.365 659.559 405.865 659.556 406.37C659.556 406.87 659.451 407.365 659.249 407.823C659.048 408.28 658.753 408.691 658.384 409.029L651.268 415.64C650.802 416.078 650.229 416.385 649.606 416.529C648.983 416.674 648.333 416.651 647.722 416.464V416.464Z" fill="white"/>
<path opacity="0.17" d="M667.645 422.447C667.031 422.266 666.477 421.927 666.037 421.463C665.597 420.999 665.287 420.427 665.139 419.805L662.84 410.368C662.713 409.864 662.696 409.34 662.791 408.829C662.886 408.319 663.089 407.835 663.388 407.411C663.686 406.982 664.072 406.621 664.52 406.353C664.968 406.084 665.468 405.915 665.987 405.855L666.869 413.715C666.949 414.429 667.237 415.103 667.697 415.655C668.157 416.206 668.768 416.61 669.456 416.816C670.144 417.023 670.877 417.023 671.565 416.816C672.252 416.609 672.864 416.205 673.324 415.654L678.328 409.654C678.694 410.001 678.985 410.42 679.183 410.884C679.381 411.348 679.482 411.848 679.479 412.352C679.479 412.853 679.374 413.347 679.173 413.805C678.971 414.263 678.676 414.674 678.307 415.012L671.192 421.623C670.725 422.06 670.152 422.367 669.529 422.512C668.906 422.656 668.256 422.634 667.645 422.447V422.447Z" fill="white"/>
<path opacity="0.17" d="M611.968 427.648C611.355 427.468 610.8 427.128 610.36 426.664C609.92 426.201 609.611 425.629 609.463 425.007L607.164 415.569C607.037 415.066 607.02 414.541 607.115 414.031C607.209 413.521 607.413 413.037 607.712 412.612C608.01 412.183 608.396 411.823 608.844 411.554C609.292 411.286 609.792 411.116 610.311 411.057L611.193 418.917C611.273 419.631 611.56 420.305 612.02 420.856C612.48 421.408 613.092 421.812 613.78 422.018C614.467 422.225 615.201 422.224 615.888 422.018C616.576 421.811 617.187 421.407 617.647 420.855L622.651 414.855C623.017 415.203 623.308 415.621 623.506 416.085C623.704 416.549 623.805 417.049 623.803 417.554C623.802 418.054 623.698 418.549 623.496 419.007C623.294 419.465 623 419.876 622.631 420.214L615.515 426.825C615.049 427.262 614.475 427.569 613.853 427.713C613.23 427.858 612.58 427.836 611.968 427.648V427.648Z" fill="white"/>
<path opacity="0.17" d="M631.891 433.631C631.278 433.45 630.723 433.111 630.283 432.647C629.843 432.183 629.533 431.611 629.385 430.989L627.087 421.552C626.96 421.048 626.943 420.524 627.037 420.013C627.132 419.503 627.336 419.019 627.635 418.595C627.933 418.166 628.318 417.805 628.767 417.537C629.215 417.269 629.715 417.099 630.234 417.039L631.115 424.9C631.195 425.613 631.483 426.287 631.943 426.839C632.403 427.39 633.015 427.794 633.703 428C634.39 428.207 635.123 428.207 635.811 428C636.499 427.793 637.11 427.389 637.57 426.838L642.574 420.838C642.94 421.185 643.231 421.604 643.429 422.068C643.627 422.532 643.728 423.032 643.726 423.536C643.725 424.037 643.621 424.531 643.419 424.989C643.217 425.447 642.922 425.858 642.554 426.196L635.438 432.807C634.972 433.245 634.398 433.551 633.775 433.696C633.153 433.84 632.503 433.818 631.891 433.631V433.631Z" fill="white"/>
<path opacity="0.17" d="M651.814 439.613C651.201 439.433 650.646 439.093 650.206 438.629C649.766 438.165 649.456 437.594 649.308 436.972L647.01 427.534C646.883 427.031 646.866 426.506 646.96 425.996C647.055 425.485 647.259 425.002 647.557 424.577C647.855 424.148 648.241 423.787 648.689 423.519C649.138 423.251 649.638 423.081 650.157 423.021L651.038 430.882C651.118 431.595 651.406 432.27 651.866 432.821C652.326 433.372 652.938 433.776 653.625 433.983C654.313 434.189 655.046 434.189 655.734 433.983C656.421 433.776 657.033 433.372 657.493 432.82L662.497 426.82C662.863 427.167 663.154 427.586 663.352 428.05C663.55 428.514 663.651 429.014 663.648 429.519C663.648 430.019 663.544 430.514 663.342 430.972C663.14 431.429 662.845 431.84 662.476 432.178L655.361 438.789C654.894 439.227 654.321 439.534 653.698 439.678C653.075 439.823 652.425 439.8 651.814 439.613V439.613Z" fill="white"/>
<path d="M734.152 375.839L731.071 374.914L730.232 374.661L735.084 361.668L737.26 362.322L734.152 375.839Z" fill="#5A5A5A"/>
<path d="M734.002 375.581L737.019 362.462L735.208 361.918L730.498 374.529L731.13 374.719L734.002 375.581ZM734.302 376.096L731.012 375.108L729.965 374.794L734.96 361.418L737.352 362.136L737.501 362.181L734.302 376.096Z" fill="#5A5A5A"/>
<path d="M734.889 365.647C736.612 366.164 738.428 365.187 738.945 363.465C739.462 361.742 738.485 359.927 736.762 359.409C735.04 358.892 733.224 359.869 732.707 361.592C732.19 363.314 733.167 365.13 734.889 365.647Z" fill="#707070"/>
<path d="M734.948 365.452C736.563 365.937 738.265 365.021 738.75 363.406C739.235 361.792 738.319 360.089 736.704 359.604C735.089 359.119 733.387 360.035 732.902 361.65C732.417 363.265 733.333 364.967 734.948 365.452Z" stroke="#707070"/>
<path d="M702.868 349.997C702.895 349.917 702.922 349.831 702.951 349.733C703.758 347.034 703.462 344.126 702.127 341.646C700.792 339.165 698.528 337.315 695.832 336.502C693.133 335.695 690.224 335.992 687.744 337.327C685.264 338.661 683.414 340.925 682.601 343.622C682.575 343.708 682.548 343.796 682.525 343.886C682.056 341.827 682.129 339.682 682.737 337.66C683.204 336.095 683.981 334.641 685.023 333.384C686.027 332.171 687.257 331.164 688.645 330.42C690.032 329.672 691.55 329.2 693.116 329.03C694.736 328.853 696.376 329.005 697.937 329.475C699.502 329.942 700.956 330.719 702.214 331.761C703.427 332.765 704.434 333.996 705.179 335.384C705.927 336.77 706.399 338.287 706.569 339.853C706.746 341.476 706.594 343.118 706.121 344.681C705.515 346.704 704.394 348.536 702.868 349.997V349.997Z" fill="#454545"/>
<path d="M637.644 330.836C637.671 330.756 637.698 330.67 637.727 330.573C638.534 327.874 638.238 324.965 636.903 322.485C635.568 320.005 633.304 318.155 630.607 317.342C627.909 316.535 625 316.831 622.52 318.166C620.039 319.501 618.19 321.765 617.376 324.462C617.351 324.547 617.324 324.636 617.301 324.726C616.832 322.667 616.905 320.521 617.513 318.499C617.98 316.935 618.757 315.48 619.799 314.223C620.803 313.01 622.033 312.004 623.421 311.259C624.807 310.511 626.326 310.039 627.892 309.87C629.512 309.693 631.152 309.844 632.713 310.315C634.278 310.781 635.732 311.559 636.99 312.601C638.203 313.605 639.21 314.835 639.955 316.223C640.703 317.609 641.175 319.127 641.345 320.693C641.522 322.316 641.37 323.958 640.897 325.52C640.291 327.544 639.17 329.375 637.644 330.836V330.836Z" fill="#454545"/>
</g>
<g clip-path="url(#clip1)">
<path d="M20.9108 396.208C20.9108 396.208 20.3098 394.441 19.3376 391.155" stroke="#69F0AE" stroke-width="9" stroke-miterlimit="10"/>
<path d="M16.4918 380.909C-4.99347 298.236 -71.977 -82.7887 599.502 155.075" stroke="#69F0AE" stroke-width="9" stroke-miterlimit="10" stroke-dasharray="12.04 12.04"/>
<path d="M604.53 156.842L609.524 158.608" stroke="#69F0AE" stroke-width="9" stroke-miterlimit="10"/>
<path d="M174.392 470.808C174.392 470.808 144.272 540.269 302.588 558.8V629.037H485.615V443.021L172.041 434.533L174.392 470.808Z" fill="#FFD4CC"/>
<path d="M260.422 177.404C255.986 184.4 248.96 189.357 240.878 191.192C232.797 193.028 224.318 191.592 217.292 187.2L125.915 127.04C118.916 122.607 113.956 115.585 112.119 107.509C110.283 99.4328 111.719 90.9584 116.114 83.937V83.937C120.55 76.9412 127.576 71.9843 135.657 70.1489C143.739 68.3135 152.218 69.7489 159.244 74.1415L250.603 134.31C257.603 138.74 262.565 145.759 264.405 153.833C266.244 161.908 264.812 170.382 260.422 177.404V177.404Z" fill="#FFD1C8"/>
<path d="M450.864 521.755C488.824 521.755 519.597 491.001 519.597 453.064C519.597 415.126 488.824 384.372 450.864 384.372C412.903 384.372 382.13 415.126 382.13 453.064C382.13 491.001 412.903 521.755 450.864 521.755Z" fill="#FFD4CC"/>
<path d="M438.49 0H175.188C169.208 0 164.361 4.8443 164.361 10.82V503.207C164.361 509.182 169.208 514.027 175.188 514.027H438.49C444.47 514.027 449.317 509.182 449.317 503.207V10.82C449.317 4.8443 444.47 0 438.49 0Z" fill="url(#paint0_linear)"/>
<path d="M433.408 6.95132H180.269C173.612 6.95132 168.214 12.3453 168.214 18.9991V495.045C168.214 501.699 173.612 507.093 180.269 507.093H433.408C440.066 507.093 445.464 501.699 445.464 495.045V18.9991C445.464 12.3453 440.066 6.95132 433.408 6.95132Z" fill="white"/>
<path d="M376.492 19.4849C375.689 24.7889 373.015 29.6309 368.951 33.1351C364.887 36.6393 359.702 38.5743 354.335 38.59H258.583C253.217 38.5722 248.035 36.6363 243.973 33.1323C239.911 29.6283 237.237 24.7874 236.435 19.4849H185.705C184.322 19.4837 182.952 19.755 181.674 20.2831C180.396 20.8113 179.234 21.586 178.256 22.5629C177.278 23.5399 176.502 24.7 175.972 25.9769C175.442 27.2537 175.17 28.6224 175.17 30.0046V484.005C175.169 485.387 175.44 486.756 175.969 488.033C176.497 489.31 177.272 490.471 178.25 491.449C179.227 492.427 180.388 493.202 181.666 493.731C182.943 494.261 184.313 494.533 185.696 494.533H427.982C429.365 494.534 430.735 494.263 432.013 493.735C433.291 493.207 434.452 492.432 435.431 491.455C436.409 490.478 437.185 489.318 437.715 488.041C438.244 486.764 438.517 485.396 438.517 484.013V30.0135C438.518 28.6312 438.247 27.2623 437.718 25.985C437.19 24.7077 436.415 23.547 435.437 22.5692C434.459 21.5914 433.299 20.8157 432.021 20.2865C430.743 19.7573 429.374 19.4849 427.991 19.4849H376.492Z" fill="#374897"/>
<path d="M336.358 25.4734H278.107C277.13 25.4734 276.339 26.2644 276.339 27.24V27.5668C276.339 28.5424 277.13 29.3333 278.107 29.3333H336.358C337.334 29.3333 338.126 28.5424 338.126 27.5668V27.24C338.126 26.2644 337.334 25.4734 336.358 25.4734Z" fill="#DBDBDB"/>
<path d="M351.25 29.3333C352.529 29.3333 353.566 28.2973 353.566 27.0192C353.566 25.7411 352.529 24.705 351.25 24.705C349.971 24.705 348.935 25.7411 348.935 27.0192C348.935 28.2973 349.971 29.3333 351.25 29.3333Z" fill="#DBDBDB"/>
<path d="M478.599 254.199C474.71 237.378 457.913 226.893 441.082 230.78C424.252 234.666 413.76 251.453 417.649 268.273L459.795 450.573C463.684 467.394 480.481 477.879 497.311 473.993C514.142 470.106 524.634 453.32 520.745 436.499L478.599 254.199Z" fill="#FFD4CC"/>
<path d="M512.244 613.121H264.779V660.817H512.244V613.121Z" fill="#6377D5"/>
<path d="M365.205 161.09L344.931 145.836L353.769 134.354L339.018 122.783L329.8 134.46L308.951 118.782C308.157 118.186 307.191 117.864 306.198 117.864C305.205 117.864 304.239 118.186 303.445 118.782L248.181 159.898C246.086 161.665 244.124 163.687 244.107 168.316H244.045L243.903 231.664V234.481C243.901 235.388 244.077 236.287 244.423 237.126C244.768 237.965 245.275 238.727 245.915 239.371C246.555 240.014 247.316 240.524 248.153 240.874C248.991 241.223 249.889 241.404 250.797 241.406H253.519L305.92 241.521L361.051 241.645C361.959 241.647 362.858 241.47 363.698 241.126C364.537 240.781 365.3 240.274 365.944 239.634C366.587 238.994 367.098 238.234 367.448 237.397C367.797 236.56 367.978 235.662 367.98 234.755L368.131 168.704H368.246C368.246 164.067 367.3 162.857 365.205 161.09Z" fill="url(#paint1_linear)"/>
<path d="M362.801 169.667C362.801 165.445 361.918 164.367 360.026 162.733L308.704 124.161C307.978 123.617 307.096 123.323 306.189 123.323C305.283 123.323 304.4 123.617 303.675 124.161L253.254 161.682C252.041 162.548 251.065 163.705 250.417 165.046C249.768 166.387 249.467 167.87 249.542 169.358H249.489L249.356 227.159V229.729C249.354 231.4 250.015 233.004 251.195 234.188C252.375 235.372 253.977 236.04 255.649 236.045H258.133L305.946 236.151L356.244 236.265C357.916 236.268 359.52 235.607 360.705 234.428C361.89 233.249 362.558 231.648 362.563 229.977L362.695 169.711L362.801 169.667Z" fill="url(#paint2_linear)"/>
<path d="M250.416 169.589L361.624 169.841L361.485 230.99C361.484 231.475 361.388 231.955 361.201 232.402C361.014 232.85 360.741 233.256 360.397 233.598C360.054 233.94 359.646 234.211 359.197 234.396C358.749 234.58 358.268 234.675 357.783 234.674L254.378 234.439C253.297 234.437 252.262 234.005 251.5 233.24C250.737 232.475 250.311 231.438 250.313 230.358L250.451 169.589L250.416 169.589Z" fill="#6C63FF"/>
<path opacity="0.2" d="M250.416 169.589L361.624 169.841L361.485 230.99C361.484 231.475 361.388 231.955 361.201 232.402C361.014 232.85 360.741 233.256 360.397 233.598C360.054 233.94 359.646 234.211 359.197 234.396C358.749 234.58 358.268 234.675 357.783 234.674L254.378 234.439C253.297 234.437 252.262 234.005 251.5 233.24C250.737 232.475 250.311 231.438 250.313 230.358L250.451 169.589L250.416 169.589Z" fill="white"/>
<path d="M250.426 169.57L250.302 225.737C250.3 226.87 250.521 227.993 250.953 229.041C251.384 230.088 252.018 231.041 252.819 231.844C253.619 232.647 254.569 233.285 255.616 233.72C256.663 234.156 257.785 234.382 258.919 234.384L352.859 234.596" fill="#F5F5F5"/>
<path d="M361.644 169.817L361.52 226.019C361.518 227.153 361.292 228.274 360.856 229.321C360.42 230.367 359.782 231.317 358.978 232.116C358.175 232.916 357.222 233.55 356.173 233.981C355.125 234.413 354.001 234.634 352.867 234.631L258.928 234.419" fill="white"/>
<path d="M303.666 125.627L254.173 162.106C252.984 162.942 252.026 164.064 251.388 165.369C250.75 166.674 250.452 168.119 250.523 169.57L361.785 169.923C361.785 165.816 360.901 164.738 359.063 163.184L308.642 125.645C307.926 125.104 307.054 124.81 306.157 124.807C305.26 124.804 304.386 125.092 303.666 125.627V125.627Z" fill="#6C63FF"/>
<path opacity="0.2" d="M303.666 125.627L254.173 162.106C252.984 162.942 252.026 164.064 251.388 165.369C250.75 166.674 250.452 168.119 250.523 169.57L361.785 169.923C361.785 165.816 360.901 164.738 359.063 163.184L308.642 125.645C307.926 125.104 307.054 124.81 306.157 124.807C305.26 124.804 304.386 125.092 303.666 125.627V125.627Z" fill="#6377D5"/>
<path d="M349.597 138.32L336.137 127.774L303.604 168.952L286.123 155.402L275.172 169.314L300.617 188.737L306.927 193.798L349.597 138.32Z" fill="url(#paint3_linear)"/>
<path d="M348.607 138.064L336.411 128.719L304.09 170.842L286.14 157.089L276.781 169.278L300.829 187.686L306.998 192.305L348.607 138.064Z" fill="white"/>
<path d="M240.324 270.784C235.888 277.779 228.862 282.736 220.781 284.572C212.699 286.407 204.22 284.972 197.194 280.579L118.969 229.676C111.969 225.243 107.009 218.221 105.172 210.145C103.336 202.069 104.772 193.594 109.167 186.573V186.573C113.603 179.577 120.629 174.62 128.711 172.785C136.792 170.949 145.271 172.385 152.297 176.777L230.523 227.68C237.522 232.113 242.482 239.135 244.319 247.211C246.155 255.288 244.719 263.762 240.324 270.784V270.784Z" fill="#FFD1C8"/>
<path d="M207.879 451.403C203.443 458.399 196.417 463.356 188.336 465.191C180.255 467.027 171.775 465.591 164.75 461.199L126.684 433.446C119.684 429.013 114.724 421.991 112.888 413.915C111.052 405.839 112.488 397.364 116.883 390.343C121.319 383.347 128.345 378.39 136.426 376.555C144.507 374.719 152.987 376.155 160.013 380.547L198.078 408.3C205.078 412.733 210.038 419.755 211.874 427.831C213.711 435.907 212.275 444.382 207.879 451.403V451.403Z" fill="#FFD1C8"/>
<path d="M396.987 285.799H216.691V339.678H396.987V285.799Z" fill="url(#paint4_linear)"/>
<path d="M390.8 291.099H222.878V329.962H390.8V291.099Z" fill="#FFDB6D"/>
<path d="M359 345H247V355H359V345Z" fill="#F5F5F5"/>
<path d="M359 345H247V355H359V345Z" fill="#F5F5F5"/>
<path d="M359 345H247V355H359V345Z" fill="white"/>
<path d="M349 366H247V376H349V366Z" fill="#F5F5F5"/>
<path d="M349 366H247V376H349V366Z" fill="#F5F5F5"/>
<path d="M349 366H247V376H349V366Z" fill="white"/>
<path d="M287 386H247V396H287V386Z" fill="#F5F5F5"/>
<path d="M287 386H247V396H287V386Z" fill="#F5F5F5"/>
<path d="M287 386H247V396H287V386Z" fill="white"/>
<path d="M338 386H298V396H338V386Z" fill="#F5F5F5"/>
<path d="M338 386H298V396H338V386Z" fill="#F5F5F5"/>
<path d="M338 386H298V396H338V386Z" fill="white"/>
<path d="M314 406H247V416H314V406Z" fill="#F5F5F5"/>
<path d="M314 406H247V416H314V406Z" fill="#F5F5F5"/>
<path d="M314 406H247V416H314V406Z" fill="white"/>
<path d="M702.827 189.479L706 189.973L705.505 189.505H705.77L705.355 189.364L647.828 134.84L633.864 156.86L622.251 176.945L627.633 177.784L625.247 188.666L702.827 189.479Z" fill="url(#paint5_linear)"/>
<path d="M636.277 158.008L625.671 176.389L703.446 189.046L653.352 154.183L636.277 158.008Z" fill="#374897"/>
<path opacity="0.2" d="M636.277 158.008L625.671 176.389L703.446 189.046L653.352 154.183L636.277 158.008Z" fill="#374897"/>
<path d="M649.048 137.869L703.446 189.046L636.277 158.008L649.048 137.869Z" fill="#6377D5"/>
<path d="M628.535 187.191L703.234 188.613L633.502 163.864L628.535 187.191Z" fill="#6377D5"/>
<path d="M224.097 361.098C219.661 368.093 212.635 373.05 204.554 374.886C196.473 376.721 187.993 375.286 180.968 370.893L118.96 330.793C111.96 326.359 107 319.338 105.164 311.261C103.327 303.185 104.763 294.711 109.159 287.689V287.689C113.588 280.686 120.61 275.72 128.692 273.876C136.774 272.033 145.257 273.461 152.288 277.85L214.296 317.95C221.308 322.384 226.277 329.414 228.114 337.501C229.951 345.588 228.506 354.073 224.097 361.098V361.098Z" fill="#FFD1C8"/>
</g>
<defs>
<linearGradient id="paint0_linear" x1="155438" y1="336310" x2="155438" y2="37167" gradientUnits="userSpaceOnUse">
<stop stop-color="#808080" stop-opacity="0.25"/>
<stop offset="0.54" stop-color="#808080" stop-opacity="0.12"/>
<stop offset="1" stop-color="#808080" stop-opacity="0.1"/>
</linearGradient>
<linearGradient id="paint1_linear" x1="306.07" y1="241.636" x2="306.07" y2="117.854" gradientUnits="userSpaceOnUse">
<stop stop-opacity="0.12"/>
<stop offset="0.55" stop-opacity="0.09"/>
<stop offset="1" stop-opacity="0.02"/>
</linearGradient>
<linearGradient id="paint2_linear" x1="62037.2" y1="38507.9" x2="62037.2" y2="24067.1" gradientUnits="userSpaceOnUse">
<stop stop-color="#808080" stop-opacity="0.25"/>
<stop offset="0.54" stop-color="#808080" stop-opacity="0.12"/>
<stop offset="1" stop-color="#808080" stop-opacity="0.1"/>
</linearGradient>
<linearGradient id="paint3_linear" x1="41090.2" y1="19432" x2="41101.4" y2="14491.5" gradientUnits="userSpaceOnUse">
<stop stop-opacity="0.12"/>
<stop offset="0.55" stop-opacity="0.09"/>
<stop offset="1" stop-opacity="0.02"/>
</linearGradient>
<linearGradient id="paint4_linear" x1="62811.8" y1="21006.2" x2="62811.8" y2="17719.5" gradientUnits="userSpaceOnUse">
<stop stop-opacity="0.12"/>
<stop offset="0.55" stop-opacity="0.09"/>
<stop offset="1" stop-opacity="0.02"/>
</linearGradient>
<linearGradient id="paint5_linear" x1="58507.6" y1="58463.8" x2="60429.6" y2="55428.6" gradientUnits="userSpaceOnUse">
<stop stop-color="#808080" stop-opacity="0.25"/>
<stop offset="0.54" stop-color="#808080" stop-opacity="0.12"/>
<stop offset="1" stop-color="#808080" stop-opacity="0.1"/>
</linearGradient>
<clipPath id="clip0">
<rect width="335.418" height="335.418" fill="white" transform="translate(539.464 157) rotate(16.714)"/>
</clipPath>
<clipPath id="clip1">
<rect width="706" height="667" fill="white"/>
</clipPath>
</defs>
</svg>
